<svg xmlns="http://www.w3.org/2000/svg" viewBox="0 0 700 212"><defs><style>.cls-1{fill:#e0f4ff;}.cls-2{fill:#003749;}.cls-3{fill:#e4f2fb;}.cls-4{fill:#b6e0f4;}.cls-5{fill:#95c8ec;}.cls-6{fill:#fff;}.cls-7{fill:#eceff0;}.cls-8{fill:#0071bc;}.cls-9{fill:#fbb040;}.cls-10{fill:#4aa7de;}.cls-11{fill:#73c073;}.cls-12{fill:#bdddf4;}.cls-13{fill:#3aba3a;}.cls-14{fill:#335f6d;}.cls-15{fill:#3f535c;}.cls-16{fill:#97d3f1;}.cls-17{fill:#136fb7;}.cls-18{fill:#cfeaf9;}.cls-19{fill:#f36c36;}.cls-20{fill:#546e7a;}.cls-21{fill:#00558d;}.cls-22{fill:#d9eeff;opacity:0.3;}.cls-23{fill:#c8e5c9;}</style></defs><title>Software testing and QA services</title><g id="Layer_3" data-name="Layer 3"><g id="_Group_" data-name="&lt;Group&gt;"><g id="_Group_2" data-name="&lt;Group&gt;"><path class="cls-1" d="M102,145.25a20.71,20.71,0,1,0,28.64-6.12A20.73,20.73,0,0,0,102,145.25Zm26.91,9.17a9.57,9.57,0,1,1-11.36-7.36A9.57,9.57,0,0,1,128.94,154.43Z"/><g id="_Group_3" data-name="&lt;Group&gt;"><path id="_Compound_Path_" data-name="&lt;Compound Path&gt;" class="cls-1" d="M101.38,165.77l-5.4-.31-1.52-7.14,4.8-2.49Z"/></g><g id="_Group_4" data-name="&lt;Group&gt;"><path id="_Compound_Path_2" data-name="&lt;Compound Path&gt;" class="cls-1" d="M111.5,175.38l-4.34,3.23-5.75-4.49,2.08-5Z"/></g><g id="_Group_5" data-name="&lt;Group&gt;"><path id="_Compound_Path_3" data-name="&lt;Compound Path&gt;" class="cls-1" d="M125.43,176.24l-1.24,5.26-7.29.26-1.62-5.16Z"/></g><g id="_Group_6" data-name="&lt;Group&gt;"><path id="_Compound_Path_4" data-name="&lt;Compound Path&gt;" class="cls-1" d="M136.66,167.94l2.43,4.83-5.42,4.89-4.56-2.91Z"/></g><g id="_Group_7" data-name="&lt;Group&gt;"><path id="_Compound_Path_5" data-name="&lt;Compound Path&gt;" class="cls-1" d="M139.92,154.37l5,2.14-1,7.23-5.36.7Z"/></g><g id="_Group_8" data-name="&lt;Group&gt;"><path id="_Compound_Path_6" data-name="&lt;Compound Path&gt;" class="cls-1" d="M133.7,141.88l5.18-1.55,3.87,6.19-3.66,4Z"/></g><g id="_Group_9" data-name="&lt;Group&gt;"><path id="_Compound_Path_7" data-name="&lt;Compound Path&gt;" class="cls-1" d="M120.91,136.31l3-4.52,6.94,2.25-.25,5.4Z"/></g><g id="_Group_10" data-name="&lt;Group&gt;"><path id="_Compound_Path_8" data-name="&lt;Compound Path&gt;" class="cls-1" d="M107.52,140.26l-.63-5.37,6.76-2.74,3.28,4.3Z"/></g><g id="_Group_11" data-name="&lt;Group&gt;"><path id="_Compound_Path_9" data-name="&lt;Compound Path&gt;" class="cls-1" d="M99.81,151.9l-3.94-3.71,3.42-6.45,5.28,1.18Z"/></g></g></g><g id="_Group_12" data-name="&lt;Group&gt;"><g id="_Group_13" data-name="&lt;Group&gt;"><path class="cls-1" d="M466.3,87.41a12,12,0,1,0,16.54-3.53A12,12,0,0,0,466.3,87.41Zm15.54,5.3a5.53,5.53,0,1,1-6.56-4.25A5.53,5.53,0,0,1,481.84,92.71Z"/><g id="_Group_14" data-name="&lt;Group&gt;"><path id="_Compound_Path_10" data-name="&lt;Compound Path&gt;" class="cls-1" d="M465.93,99.26l-3.12-.18L461.93,95l2.77-1.44Z"/></g><g id="_Group_15" data-name="&lt;Group&gt;"><path id="_Compound_Path_11" data-name="&lt;Compound Path&gt;" class="cls-1" d="M471.77,104.81l-2.5,1.87-3.32-2.59,1.2-2.88Z"/></g><g id="_Group_16" data-name="&lt;Group&gt;"><path id="_Compound_Path_12" data-name="&lt;Compound Path&gt;" class="cls-1" d="M479.82,105.31l-.72,3-4.21.15-.93-3Z"/></g><g id="_Group_17" data-name="&lt;Group&gt;"><path id="_Compound_Path_13" data-name="&lt;Compound Path&gt;" class="cls-1" d="M486.3,100.52l1.4,2.79-3.13,2.82-2.63-1.68Z"/></g><g id="_Group_18" data-name="&lt;Group&gt;"><path id="_Compound_Path_14" data-name="&lt;Compound Path&gt;" class="cls-1" d="M488.19,92.68l2.87,1.24-.58,4.17-3.1.4Z"/></g><g id="_Group_19" data-name="&lt;Group&gt;"><path id="_Compound_Path_15" data-name="&lt;Compound Path&gt;" class="cls-1" d="M484.59,85.46l3-.9,2.24,3.57-2.11,2.3Z"/></g><g id="_Group_20" data-name="&lt;Group&gt;"><path id="_Compound_Path_16" data-name="&lt;Compound Path&gt;" class="cls-1" d="M477.2,82.24l1.72-2.61,4,1.3-.14,3.12Z"/></g><g id="_Group_21" data-name="&lt;Group&gt;"><path id="_Compound_Path_17" data-name="&lt;Compound Path&gt;" class="cls-1" d="M469.47,84.53l-.36-3.1L473,79.84l1.9,2.48Z"/></g><g id="_Group_22" data-name="&lt;Group&gt;"><path id="_Compound_Path_18" data-name="&lt;Compound Path&gt;" class="cls-1" d="M465,91.25l-2.27-2.14,2-3.72,3,.68Z"/></g></g></g><g id="_Group_23" data-name="&lt;Group&gt;"><g id="_Group_24" data-name="&lt;Group&gt;"><path class="cls-1" d="M216.19,65.22a17.47,17.47,0,1,0,24.16-5.16A17.49,17.49,0,0,0,216.19,65.22ZM238.89,73a8.07,8.07,0,1,1-9.58-6.21A8.07,8.07,0,0,1,238.89,73Z"/><g id="_Group_25" data-name="&lt;Group&gt;"><path id="_Compound_Path_19" data-name="&lt;Compound Path&gt;" class="cls-1" d="M215.65,82.52l-4.55-.26-1.28-6,4.05-2.1Z"/></g><g id="_Group_26" data-name="&lt;Group&gt;"><path id="_Compound_Path_20" data-name="&lt;Compound Path&gt;" class="cls-1" d="M224.18,90.63l-3.66,2.73-4.85-3.79,1.75-4.21Z"/></g><g id="_Group_27" data-name="&lt;Group&gt;"><path id="_Compound_Path_21" data-name="&lt;Compound Path&gt;" class="cls-1" d="M235.94,91.36l-1,4.44-6.15.22-1.36-4.35Z"/></g><g id="_Group_28" data-name="&lt;Group&gt;"><path id="_Compound_Path_22" data-name="&lt;Compound Path&gt;" class="cls-1" d="M245.41,84.36l2,4.08-4.57,4.12L239,90.1Z"/></g><g id="_Group_29" data-name="&lt;Group&gt;"><path id="_Compound_Path_23" data-name="&lt;Compound Path&gt;" class="cls-1" d="M248.16,72.91l4.19,1.8-.85,6.1L247,81.4Z"/></g><g id="_Group_30" data-name="&lt;Group&gt;"><path id="_Compound_Path_24" data-name="&lt;Compound Path&gt;" class="cls-1" d="M242.91,62.37l4.37-1.31,3.27,5.22-3.09,3.36Z"/></g><g id="_Group_31" data-name="&lt;Group&gt;"><path id="_Compound_Path_25" data-name="&lt;Compound Path&gt;" class="cls-1" d="M232.12,57.67l2.51-3.81,5.86,1.9-.21,4.56Z"/></g><g id="_Group_32" data-name="&lt;Group&gt;"><path id="_Compound_Path_26" data-name="&lt;Compound Path&gt;" class="cls-1" d="M220.83,61l-.53-4.53L226,54.17l2.77,3.63Z"/></g><g id="_Group_33" data-name="&lt;Group&gt;"><path id="_Compound_Path_27" data-name="&lt;Compound Path&gt;" class="cls-1" d="M214.32,70.82,211,67.69l2.89-5.44,4.45,1Z"/></g></g></g><path class="cls-2" d="M469,14.52a7.66,7.66,0,0,0-8-8H272c-4.68,0-9,3.32-9,8V152.95H469Z"/><rect class="cls-1" x="273.08" y="16.62" width="185.81" height="126.23"/><path class="cls-3" d="M263,152.95v12.2c0,4.68,4.3,8,9,8H461a7.66,7.66,0,0,0,8-8v-12.2Z"/><rect class="cls-4" x="339.58" y="173.15" width="52.8" height="27.27"/><polygon class="cls-5" points="392.38 174.34 339.58 180.33 339.58 173.15 392.38 173.15 392.38 174.34"/><rect class="cls-3" x="318.19" y="200.27" width="95.58" height="4.73"/><rect class="cls-6" x="277.84" y="42.43" width="42.48" height="39.45"/><rect class="cls-6" x="326.53" y="51.17" width="126.68" height="30.7"/><rect class="cls-6" x="326.53" y="42.58" width="126.68" height="6.87"/><rect class="cls-6" x="326.53" y="86.76" width="126.68" height="51.07"/><rect class="cls-6" x="277.84" y="86.76" width="42.48" height="51.07"/><rect class="cls-7" x="281.31" y="91.41" width="25.45" height="3.52"/><rect class="cls-7" x="308.66" y="91.41" width="8.55" height="3.52"/><rect class="cls-7" x="281.31" y="98.71" width="18.24" height="3.52"/><rect class="cls-7" x="301.45" y="98.71" width="16" height="3.52"/><rect class="cls-7" x="281.31" y="106.02" width="24.2" height="3.52"/><rect class="cls-7" x="307.35" y="106.02" width="6.82" height="3.52"/><rect class="cls-7" x="281.31" y="113.32" width="31.22" height="3.52"/><rect class="cls-7" x="281.31" y="120.62" width="18.04" height="3.52"/><rect class="cls-7" x="301.05" y="120.62" width="11.48" height="3.52"/><rect class="cls-7" x="281.31" y="127.93" width="31.22" height="3.52"/><circle class="cls-1" cx="297.97" cy="62.06" r="16.04"/><circle class="cls-8" cx="297.97" cy="55.76" r="5.16"/><path class="cls-8" d="M298,73.51a11.45,11.45,0,0,0,10.12-6.09,11,11,0,0,0-9-4.79h-2.17a11,11,0,0,0-9,4.79A11.45,11.45,0,0,0,298,73.51Z"/><rect class="cls-4" x="331.14" y="90.84" width="80.31" height="3.52"/><rect class="cls-4" x="417.45" y="90.84" width="26.99" height="3.52"/><rect class="cls-4" x="331.14" y="98.38" width="57.54" height="3.52"/><rect class="cls-4" x="394.68" y="98.38" width="50.5" height="3.52"/><rect class="cls-4" x="331.14" y="105.92" width="76.37" height="3.52"/><rect class="cls-4" x="413.31" y="105.92" width="21.53" height="3.52"/><rect class="cls-4" x="331.14" y="113.46" width="98.53" height="3.52"/><rect class="cls-4" x="331.14" y="121" width="56.91" height="3.52"/><rect class="cls-4" x="393.43" y="113.61" width="36.23" height="3.52"/><rect class="cls-4" x="331.14" y="128.54" width="98.53" height="3.52"/><rect class="cls-9" x="333.49" y="55.18" width="22.34" height="22.34"/><rect class="cls-10" x="363.27" y="55.18" width="22.34" height="22.34"/><rect class="cls-11" x="393.06" y="55.18" width="22.34" height="22.34"/><rect class="cls-4" x="422.84" y="55.18" width="22.34" height="22.34"/><rect class="cls-8" x="272.84" y="16.23" width="186.28" height="20.24"/><path class="cls-6" d="M285.22,30.88l-4.64-4.64,4.64-4.64-1.43-1.43-5.94,5.95,6,6Zm5.24,0,4.64-4.64-4.64-4.64,1.43-1.43,6,6-6,5.95Z"/><circle class="cls-12" cx="440.55" cy="20.29" r="1.79"/><circle class="cls-12" cx="446.98" cy="20.29" r="1.79"/><circle class="cls-12" cx="453.28" cy="20.29" r="1.79"/><path class="cls-4" d="M553,78.62h-17.2a3.73,3.73,0,0,1-3.73-3.73V57.7A3.73,3.73,0,0,1,535.78,54H553a3.73,3.73,0,0,1,3.73,3.73V74.9A3.73,3.73,0,0,1,553,78.62Zm-17.2-22.34a1.41,1.41,0,0,0-1.41,1.41V74.9a1.42,1.42,0,0,0,1.41,1.41H553a1.42,1.42,0,0,0,1.41-1.41V57.7A1.42,1.42,0,0,0,553,56.28Z"/><path class="cls-4" d="M553,107.26h-17.2a3.73,3.73,0,0,1-3.73-3.73V86.33a3.73,3.73,0,0,1,3.73-3.73H553a3.73,3.73,0,0,1,3.73,3.73v17.2A3.73,3.73,0,0,1,553,107.26Zm-17.2-22.34a1.41,1.41,0,0,0-1.41,1.41v17.2a1.42,1.42,0,0,0,1.41,1.41H553a1.42,1.42,0,0,0,1.41-1.41V86.33A1.42,1.42,0,0,0,553,84.92Z"/><rect class="cls-1" x="562.15" y="26.69" width="30.3" height="2.88"/><rect class="cls-1" x="562.15" y="34" width="55.02" height="2.88"/><rect class="cls-1" x="562.15" y="41.11" width="55.02" height="2.88"/><rect class="cls-1" x="562.15" y="65.02" width="55.02" height="2.89"/><rect class="cls-1" x="562.15" y="72.13" width="55.02" height="2.88"/><rect class="cls-1" x="562.15" y="95.92" width="55.02" height="2.88"/><rect class="cls-1" x="562.15" y="103.03" width="55.02" height="2.88"/><rect class="cls-1" x="562.15" y="57.66" width="30.3" height="2.89"/><rect class="cls-1" x="562.15" y="88.62" width="30.3" height="2.89"/><path class="cls-13" d="M543.14,73.11l-6.92-6.62,2.58-2.7,4.22,4,6.92-7.21,2.7,2.59Z"/><path class="cls-13" d="M543.14,43.7l-6.92-6.62,2.58-2.7,4.22,4,6.92-7.21,2.7,2.59Z"/><path class="cls-13" d="M543.14,101.11l-6.92-6.62,2.58-2.7,4.22,4,6.92-7.21,2.7,2.59Z"/><path class="cls-4" d="M553,50h-17.2a3.73,3.73,0,0,1-3.73-3.73V29.06a3.73,3.73,0,0,1,3.73-3.73H553a3.73,3.73,0,0,1,3.73,3.73v17.2A3.73,3.73,0,0,1,553,50Zm-17.2-22.34a1.41,1.41,0,0,0-1.41,1.41v17.2a1.42,1.42,0,0,0,1.41,1.41H553a1.42,1.42,0,0,0,1.41-1.41V29.06A1.42,1.42,0,0,0,553,27.65Z"/><path class="cls-1" d="M433.54,199.26l-10.23-5.9v-2.26l10.23-6.65v3.91l-6.27,3.72,6.27,3.31Z"/><path class="cls-1" d="M443.42,182.1l-5.51,19.76h-3.5l5.51-19.76Z"/><path class="cls-1" d="M444.19,195.38l6.27-3.31-6.27-3.72v-3.91l10.23,6.65v2.26l-10.23,5.9Z"/><path class="cls-1" d="M170.88,59.45l-13.82-8V48.42l13.82-9v5.28l-8.47,5,8.47,4.48Z"/><path class="cls-1" d="M184.23,36.27,176.78,63h-4.73l7.45-26.7Z"/><path class="cls-1" d="M185.27,54.21l8.47-4.48-8.47-5V39.44l13.82,9v3.06l-13.82,8Z"/><g id="_Group_34" data-name="&lt;Group&gt;"><g id="_Group_35" data-name="&lt;Group&gt;"><path class="cls-1" d="M143.6,156.09a12,12,0,1,0,16.54-3.53A12,12,0,0,0,143.6,156.09Zm15.54,5.3a5.53,5.53,0,1,1-6.56-4.25A5.53,5.53,0,0,1,159.14,161.39Z"/><g id="_Group_36" data-name="&lt;Group&gt;"><path id="_Compound_Path_28" data-name="&lt;Compound Path&gt;" class="cls-1" d="M143.23,167.94l-3.12-.18-.88-4.12L142,162.2Z"/></g><g id="_Group_37" data-name="&lt;Group&gt;"><path id="_Compound_Path_29" data-name="&lt;Compound Path&gt;" class="cls-1" d="M149.07,173.49l-2.5,1.87-3.32-2.59,1.2-2.88Z"/></g><g id="_Group_38" data-name="&lt;Group&gt;"><path id="_Compound_Path_30" data-name="&lt;Compound Path&gt;" class="cls-1" d="M157.12,174l-.72,3-4.21.15-.93-3Z"/></g><g id="_Group_39" data-name="&lt;Group&gt;"><path id="_Compound_Path_31" data-name="&lt;Compound Path&gt;" class="cls-1" d="M163.6,169.19,165,172l-3.13,2.82-2.63-1.68Z"/></g><g id="_Group_40" data-name="&lt;Group&gt;"><path id="_Compound_Path_32" data-name="&lt;Compound Path&gt;" class="cls-1" d="M165.49,161.36l2.87,1.24-.58,4.17-3.1.4Z"/></g><g id="_Group_41" data-name="&lt;Group&gt;"><path id="_Compound_Path_33" data-name="&lt;Compound Path&gt;" class="cls-1" d="M161.9,154.14l3-.9,2.24,3.57-2.11,2.3Z"/></g><g id="_Group_42" data-name="&lt;Group&gt;"><path id="_Compound_Path_34" data-name="&lt;Compound Path&gt;" class="cls-1" d="M154.51,150.92l1.72-2.61,4,1.3-.14,3.12Z"/></g><g id="_Group_43" data-name="&lt;Group&gt;"><path id="_Compound_Path_35" data-name="&lt;Compound Path&gt;" class="cls-1" d="M146.77,153.21l-.36-3.1,3.91-1.58,1.9,2.48Z"/></g><g id="_Group_44" data-name="&lt;Group&gt;"><path id="_Compound_Path_36" data-name="&lt;Compound Path&gt;" class="cls-1" d="M142.32,159.93,140,157.78l2-3.72,3,.68Z"/></g></g></g><g id="_Group_45" data-name="&lt;Group&gt;"><g id="_Group_46" data-name="&lt;Group&gt;"><path class="cls-1" d="M598.38,159.15a17.7,17.7,0,1,0,24.47-5.23A17.72,17.72,0,0,0,598.38,159.15Zm23,7.84a8.18,8.18,0,1,1-9.7-6.29A8.18,8.18,0,0,1,621.37,167Z"/><g id="_Group_47" data-name="&lt;Group&gt;"><path id="_Compound_Path_37" data-name="&lt;Compound Path&gt;" class="cls-1" d="M597.82,176.68l-4.61-.27-1.3-6.1,4.1-2.13Z"/></g><g id="_Group_48" data-name="&lt;Group&gt;"><path id="_Compound_Path_38" data-name="&lt;Compound Path&gt;" class="cls-1" d="M606.47,184.89l-3.71,2.76-4.92-3.84,1.78-4.27Z"/></g><g id="_Group_49" data-name="&lt;Group&gt;"><path id="_Compound_Path_39" data-name="&lt;Compound Path&gt;" class="cls-1" d="M618.37,185.63l-1.06,4.5-6.23.22-1.38-4.41Z"/></g><g id="_Group_50" data-name="&lt;Group&gt;"><path id="_Compound_Path_40" data-name="&lt;Compound Path&gt;" class="cls-1" d="M628,178.54l2.08,4.13-4.63,4.18-3.89-2.49Z"/></g><g id="_Group_51" data-name="&lt;Group&gt;"><path id="_Compound_Path_41" data-name="&lt;Compound Path&gt;" class="cls-1" d="M630.76,166.95l4.24,1.83-.86,6.17-4.58.59Z"/></g><g id="_Group_52" data-name="&lt;Group&gt;"><path id="_Compound_Path_42" data-name="&lt;Compound Path&gt;" class="cls-1" d="M625.44,156.27l4.43-1.33,3.31,5.29-3.13,3.4Z"/></g><g id="_Group_53" data-name="&lt;Group&gt;"><path id="_Compound_Path_43" data-name="&lt;Compound Path&gt;" class="cls-1" d="M614.51,151.51l2.54-3.86,5.93,1.92-.21,4.62Z"/></g><g id="_Group_54" data-name="&lt;Group&gt;"><path id="_Compound_Path_44" data-name="&lt;Compound Path&gt;" class="cls-1" d="M603.07,154.89l-.54-4.59,5.78-2.34,2.81,3.67Z"/></g><g id="_Group_55" data-name="&lt;Group&gt;"><path id="_Compound_Path_45" data-name="&lt;Compound Path&gt;" class="cls-1" d="M596.48,164.83l-3.36-3.17,2.92-5.51,4.51,1Z"/></g></g></g><path class="cls-2" d="M573.15,205.56a5.65,5.65,0,0,1-5.64-5.64V130.26a5.66,5.66,0,0,1,5.64-5.65h32.76a5.66,5.66,0,0,1,5.64,5.65v69.67a5.65,5.65,0,0,1-5.64,5.64Z"/><path class="cls-14" d="M594.41,199.73a1.34,1.34,0,0,1-1.35,1.35H586a1.36,1.36,0,0,1-1.35-1.35v-.56a1.36,1.36,0,0,1,1.35-1.35h7.08a1.35,1.35,0,0,1,1.35,1.35Z"/><path class="cls-14" d="M591.16,130.73a1.63,1.63,0,1,1-1.62-1.62A1.62,1.62,0,0,1,591.16,130.73Z"/><path class="cls-15" d="M287.22,194.46a6.42,6.42,0,0,1-6.41,6.42H137.42a6.42,6.42,0,0,1-6.41-6.42V97.64a6.43,6.43,0,0,1,6.41-6.44H280.8a6.43,6.43,0,0,1,6.41,6.44v96.82"/><path class="cls-5" d="M108.54,198.14v2h.06c4,5,6.81,4.26,7.61,4.26l92.92,0,79.65,0h14.76c1.38-.17,3.5-1,6.12-4.26h0v-2Z"/><path class="cls-4" d="M108.54,194.37v5.81a16.71,16.71,0,0,0,2.35.16H307.34a16.83,16.83,0,0,0,2.36-.16v-5.81H108.54"/><path class="cls-3" d="M194.11,194.37a2.36,2.36,0,0,0-.06.53,2.54,2.54,0,0,0,2.54,2.54H225.4a2.54,2.54,0,0,0,2.54-2.54,2.36,2.36,0,0,0-.06-.53Z"/><rect class="cls-6" x="571.05" y="134.52" width="36.97" height="60.17"/><rect class="cls-10" x="581.49" y="177.5" width="12.5" height="1.84"/><rect class="cls-11" x="573.16" y="177.5" width="5.95" height="1.84"/><rect class="cls-10" x="581.49" y="183.03" width="16.07" height="1.84"/><rect class="cls-9" x="573.16" y="183.03" width="5.95" height="1.84"/><rect class="cls-10" x="581.49" y="188.56" width="8.33" height="1.84"/><rect class="cls-16" x="601.73" y="177.5" width="2.98" height="1.84"/><rect class="cls-16" x="601.73" y="183.03" width="2.98" height="1.84"/><rect class="cls-16" x="601.73" y="188.56" width="2.98" height="1.84"/><rect class="cls-17" x="573.16" y="188.56" width="5.95" height="1.84"/><rect class="cls-8" x="571.04" y="134.47" width="36.97" height="7.15"/><rect class="cls-18" x="583.28" y="136.93" width="15.48" height="1.84"/><rect class="cls-18" x="573.16" y="136.93" width="5.95" height="1.84"/><rect class="cls-11" x="573.15" y="145.11" width="10.29" height="2.41"/><rect class="cls-9" x="573.02" y="149.94" width="20.35" height="2.41"/><rect class="cls-4" x="573.3" y="156.11" width="31.55" height="15.98"/><rect class="cls-3" x="137.92" y="98.72" width="142.4" height="89.38"/><rect class="cls-6" x="142.04" y="101.97" width="40.76" height="83.48"/><rect class="cls-6" x="186.93" y="101.97" width="88.74" height="39.9"/><rect class="cls-6" x="186.93" y="145.56" width="88.74" height="39.9"/><rect class="cls-4" x="219.38" y="114.6" width="24.35" height="23.66"/><rect class="cls-4" x="192.09" y="114.6" width="24.35" height="23.66"/><rect class="cls-8" x="192.09" y="106.31" width="78.94" height="4.88"/><rect class="cls-4" x="246.68" y="114.6" width="24.35" height="23.66"/><rect class="cls-11" x="194.71" y="119.22" width="13.94" height="1.63"/><rect class="cls-16" x="194.71" y="125.72" width="15.49" height="1.63"/><rect class="cls-16" x="194.71" y="129.52" width="12.78" height="1.63"/><rect class="cls-16" x="194.71" y="133.31" width="17.03" height="1.63"/><rect class="cls-16" x="222.19" y="125.72" width="15.49" height="1.63"/><rect class="cls-16" x="222.19" y="129.52" width="12.78" height="1.63"/><rect class="cls-16" x="222.19" y="133.31" width="17.03" height="1.63"/><rect class="cls-16" x="249.68" y="125.72" width="15.49" height="1.63"/><rect class="cls-16" x="249.68" y="129.52" width="12.78" height="1.63"/><rect class="cls-16" x="249.68" y="133.31" width="17.04" height="1.63"/><rect class="cls-9" x="222.19" y="119.22" width="13.94" height="1.63"/><rect class="cls-17" x="249.68" y="119.22" width="13.94" height="1.63"/><rect class="cls-8" x="146.17" y="106.31" width="32.5" height="4.34"/><rect class="cls-7" x="149.5" y="114.44" width="25.84" height="1.08"/><rect class="cls-7" x="153.76" y="117.15" width="17.32" height="1.08"/><rect class="cls-7" x="146.41" y="163.23" width="32.27" height="1.08"/><rect class="cls-7" x="146.41" y="166.12" width="32.27" height="1.08"/><rect class="cls-7" x="146.41" y="169.01" width="32.27" height="1.08"/><rect class="cls-7" x="146.41" y="171.9" width="32.27" height="1.08"/><rect class="cls-4" x="146.17" y="121.49" width="32.5" height="19.51"/><rect class="cls-4" x="146.17" y="144.26" width="14.79" height="15.54"/><rect class="cls-4" x="163.89" y="144.26" width="14.79" height="15.54"/><rect class="cls-11" x="146.17" y="176.24" width="32.5" height="5.42"/><rect class="cls-6" x="173.18" y="177.86" width="4.75" height="2.17"/><rect class="cls-7" x="207.31" y="153.47" width="34.31" height="3.25"/><rect class="cls-19" x="192.61" y="153.47" width="8.17" height="3.25"/><rect class="cls-7" x="207.31" y="164.04" width="44.11" height="3.25"/><rect class="cls-9" x="192.61" y="164.04" width="8.17" height="3.25"/><rect class="cls-7" x="207.31" y="174.61" width="22.87" height="3.25"/><rect class="cls-8" x="262.86" y="153.47" width="8.17" height="3.25"/><rect class="cls-8" x="262.86" y="164.04" width="8.17" height="3.25"/><rect class="cls-8" x="262.86" y="174.61" width="8.17" height="3.25"/><rect class="cls-11" x="192.61" y="174.61" width="8.17" height="3.25"/><path class="cls-20" d="M564.53,201.56a4,4,0,0,1-4,4H494.91a4,4,0,0,1-4-4V102.72a4,4,0,0,1,4-4h65.62a4,4,0,0,1,4,4Z"/><rect class="cls-15" x="521.88" y="103.19" width="11.69" height="4" rx="1.78" ry="1.78"/><path class="cls-15" d="M527.73,198.51a1.84,1.84,0,0,1,0,3.67,1.84,1.84,0,1,1,0-3.67Z"/><rect class="cls-6" x="495.09" y="111.66" width="65.27" height="83.47"/><rect class="cls-4" x="495.09" y="183.28" width="65.27" height="11.84"/><path class="cls-9" d="M509.94,174.93h-6.16a3,3,0,0,1-2.93-3.08v-5.75a3,3,0,0,1,2.93-3.08h6.16a3,3,0,0,1,2.93,3.08v5.75A3.08,3.08,0,0,1,509.94,174.93Z"/><path class="cls-4" d="M523.81,174.93h-6.16a3,3,0,0,1-2.93-3.08v-5.75a3,3,0,0,1,2.93-3.08h6.16a3,3,0,0,1,2.93,3.08v5.75A3,3,0,0,1,523.81,174.93Z"/><path class="cls-9" d="M537.69,174.93h-6.16a3,3,0,0,1-2.93-3.08v-5.75a3,3,0,0,1,2.93-3.08h6.16a3,3,0,0,1,2.93,3.08v5.75A3,3,0,0,1,537.69,174.93Z"/><path class="cls-10" d="M551.66,174.93h-6.16a3,3,0,0,1-2.93-3.08v-5.75a3,3,0,0,1,2.93-3.08h6.16a3,3,0,0,1,2.93,3.08v5.75A3,3,0,0,1,551.66,174.93Z"/><path class="cls-11" d="M509.94,161h-6.16a3,3,0,0,1-2.93-3.08v-5.75a3,3,0,0,1,2.93-3.08h6.16a3,3,0,0,1,2.93,3.08v5.75A3.08,3.08,0,0,1,509.94,161Z"/><path class="cls-8" d="M523.81,161h-6.16a3,3,0,0,1-2.93-3.08v-5.75a3,3,0,0,1,2.93-3.08h6.16a3,3,0,0,1,2.93,3.08v5.75A3,3,0,0,1,523.81,161Z"/><path class="cls-11" d="M537.69,161h-6.16a3,3,0,0,1-2.93-3.08v-5.75a3,3,0,0,1,2.93-3.08h6.16a3,3,0,0,1,2.93,3.08v5.75A3,3,0,0,1,537.69,161Z"/><path class="cls-4" d="M551.66,161h-6.16a3,3,0,0,1-2.93-3.08v-5.75a3,3,0,0,1,2.93-3.08h6.16a3,3,0,0,1,2.93,3.08v5.75A3,3,0,0,1,551.66,161Z"/><path class="cls-10" d="M509.94,147h-6.16a3,3,0,0,1-2.93-3.08v-5.75a3,3,0,0,1,2.93-3.08h6.16a3,3,0,0,1,2.93,3.08v5.75A3.08,3.08,0,0,1,509.94,147Z"/><path class="cls-11" d="M523.81,147h-6.16a3,3,0,0,1-2.93-3.08v-5.75a3,3,0,0,1,2.93-3.08h6.16a3,3,0,0,1,2.93,3.08v5.75A3,3,0,0,1,523.81,147Z"/><path class="cls-4" d="M537.69,147h-6.16a3,3,0,0,1-2.93-3.08v-5.75a3,3,0,0,1,2.93-3.08h6.16a3,3,0,0,1,2.93,3.08v5.75A3,3,0,0,1,537.69,147Z"/><path class="cls-9" d="M551.66,147h-6.16a3,3,0,0,1-2.93-3.08v-5.75a3,3,0,0,1,2.93-3.08h6.16a3,3,0,0,1,2.93,3.08v5.75A3,3,0,0,1,551.66,147Z"/><path class="cls-9" d="M509.94,133.1h-6.16a3,3,0,0,1-2.93-3.08v-5.75a3,3,0,0,1,2.93-3.08h6.16a3,3,0,0,1,2.93,3.08V130A3.16,3.16,0,0,1,509.94,133.1Z"/><path class="cls-8" d="M523.81,133.1h-6.16a3,3,0,0,1-2.93-3.08v-5.75a3,3,0,0,1,2.93-3.08h6.16a3,3,0,0,1,2.93,3.08V130A3.09,3.09,0,0,1,523.81,133.1Z"/><path class="cls-10" d="M537.69,133.1h-6.16A3,3,0,0,1,528.6,130v-5.75a3,3,0,0,1,2.93-3.08h6.16a3,3,0,0,1,2.93,3.08V130A3,3,0,0,1,537.69,133.1Z"/><path class="cls-11" d="M551.66,133.1h-6.16a3,3,0,0,1-2.93-3.08v-5.75a3,3,0,0,1,2.93-3.08h6.16a3,3,0,0,1,2.93,3.08V130A3.09,3.09,0,0,1,551.66,133.1Z"/><path class="cls-8" d="M250.23,61.61A70.77,70.77,0,1,0,321,132.38,70.77,70.77,0,0,0,250.23,61.61Zm0,13.27a57.5,57.5,0,1,1-57.5,57.5A57.5,57.5,0,0,1,250.23,74.88Z"/><rect class="cls-20" x="168.98" y="124.52" width="10.48" height="15.73"/><rect class="cls-8" x="60.91" y="119.28" width="110.69" height="26.21"/><rect class="cls-21" x="60.91" y="119.28" width="110.69" height="5.24"/><rect class="cls-9" x="166.36" y="116.66" width="5.24" height="31.45"/><rect class="cls-9" x="55.67" y="116.66" width="5.24" height="31.45"/><rect class="cls-20" x="47.8" y="121.9" width="7.86" height="20.97"/><circle class="cls-22" cx="250.23" cy="132.38" r="57.5"/><circle class="cls-22" cx="220.59" cy="102.75" r="8.97"/><path class="cls-13" d="M244.32,157.51a5,5,0,0,1-3.58-1.48l-23.12-23.12,7.16-7.16,19.54,19.54,37.16-37.16,7.16,7.16L247.9,156A5,5,0,0,1,244.32,157.51Z"/></g><g id="Layer_2" data-name="Layer 2"><rect class="cls-23" x="425.36" y="114.61" width="57.27" height="59.37" transform="translate(598.29 -309.71) rotate(90)"/><rect class="cls-11" x="429.29" y="118.54" width="57.27" height="59.37" transform="translate(606.15 -309.71) rotate(90)"/><rect class="cls-6" x="453.46" y="124.04" width="0.84" height="4.8" transform="translate(-12.26 57.86) rotate(-7.2)"/><rect class="cls-6" x="446.24" y="126.74" width="0.84" height="4.79" transform="translate(-9.52 219.05) rotate(-27.28)"/><rect class="cls-6" x="440.38" y="131.75" width="0.84" height="4.8" transform="translate(43.09 366.81) rotate(-47.25)"/><rect class="cls-6" x="436.58" y="138.46" width="0.84" height="4.8" transform="translate(137.4 488.78) rotate(-67.13)"/><rect class="cls-6" x="435.31" y="146.07" width="0.84" height="4.8" transform="translate(266.25 576.46) rotate(-87.21)"/><rect class="cls-6" x="434.74" y="155.63" width="4.8" height="0.84" transform="translate(-26.62 136.79) rotate(-17.27)"/><rect class="cls-6" x="438.65" y="162.27" width="4.8" height="0.84" transform="translate(-8.62 299.77) rotate(-37.2)"/><rect class="cls-6" x="478.44" y="153.28" width="0.84" height="4.79" transform="translate(149.89 536.88) rotate(-67.22)"/><rect class="cls-6" x="479.71" y="145.67" width="0.84" height="4.8" transform="translate(309.01 620.48) rotate(-87.23)"/><rect class="cls-6" x="476.33" y="140.07" width="4.79" height="0.84" transform="translate(-20.13 148.31) rotate(-17.25)"/><rect class="cls-6" x="472.41" y="133.43" width="4.8" height="0.84" transform="translate(15.87 314.76) rotate(-37.26)"/><rect class="cls-6" x="466.46" y="128.52" width="4.79" height="0.84" transform="matrix(0.54, -0.84, 0.84, 0.54, 106.56, 453.28)"/><rect class="cls-6" x="459.19" y="125.95" width="4.79" height="0.84" transform="translate(236.14 548.52) rotate(-77.21)"/><rect class="cls-6" x="461.49" y="167.61" width="0.84" height="4.8" transform="translate(-17.69 59.33) rotate(-7.21)"/><rect class="cls-6" x="468.71" y="164.91" width="0.84" height="4.79" transform="translate(-24.54 233.38) rotate(-27.25)"/><rect class="cls-6" x="474.57" y="159.9" width="0.84" height="4.8" transform="translate(33.35 400.86) rotate(-47.24)"/><rect class="cls-6" x="444.53" y="167.09" width="4.79" height="0.84" transform="translate(64.16 452.62) rotate(-57.23)"/><rect class="cls-6" x="451.8" y="169.66" width="4.8" height="0.84" transform="translate(187.97 575.48) rotate(-77.24)"/><path class="cls-6" d="M457.83,141a7.71,7.71,0,0,1,7.06-4.79c4.25,0,7.32,3.64,7.7,8a7.91,7.91,0,0,1-.25,3,13.33,13.33,0,0,1-4.06,6.78l-10.45,9.33L447.56,154a13.33,13.33,0,0,1-4.06-6.78,8,8,0,0,1-.25-3c.39-4.34,3.45-8,7.71-8a7.47,7.47,0,0,1,6.89,4.79Zm0,0"/><polygon class="cls-2" points="471.25 159.51 483.31 194.21 488.23 181.06 498.17 191.69 502.97 186.89 492.39 176.87 503.99 172.14 471.25 159.51"/></g></svg>